HIERARCHY
ROOT Hips
{
     OFFSET 6.21430 96.45670 5.10493
     CHANNELS 6 Xposition Yposition Zposition Zrotation Xrotation Yrotation
     JOINT Spine
     {
          OFFSET 0.00000 11.89050 0.00000
          CHANNELS 3 Zrotation Xrotation Yrotation
          JOINT Spine1
          {
               OFFSET 0.00000 25.65740 0.12766
               CHANNELS 3 Zrotation Xrotation Yrotation
               JOINT HEad
               {
                    OFFSET 0.00000 8.73416 0.01134
                    CHANNELS 3 Zrotation Xrotation Yrotation
                    End Site
                    {
                         OFFSET -0.29000 12.77420 2.51395
                    }
               }
               JOINT LeftShoulder1
               {
                    OFFSET 8.99000 -0.36225 -0.22000
                    CHANNELS 3 Zrotation Xrotation Yrotation
                    JOINT LeftArm
                    {
                         OFFSET 10.28270 -0.00338 0.32212
                         CHANNELS 3 Zrotation Xrotation Yrotation
                         JOINT LeftForeArm
                         {
                              OFFSET 32.76690 0.09914 -1.42434
                              CHANNELS 3 Zrotation Xrotation Yrotation
                              JOINT LeftHand
                              {
                                   OFFSET 27.56430 0.08536 1.02216
                                   CHANNELS 3 Zrotation Xrotation Yrotation
                                   End Site
                                   {
                                        OFFSET 16.74430 -0.60000 1.50291
                                   }
                              }
                         }
                    }
               }
               JOINT RightShoulder
               {
                    OFFSET -8.99000 -0.36225 -0.22000
                    CHANNELS 3 Zrotation Xrotation Yrotation
                    JOINT RightArm
                    {
                         OFFSET -10.28270 -0.00338 0.32212
                         CHANNELS 3 Zrotation Xrotation Yrotation
                         JOINT RightForeArm
                         {
                              OFFSET -32.89710 0.09914 -1.42434
                              CHANNELS 3 Zrotation Xrotation Yrotation
                              JOINT RightHand
                              {
                                   OFFSET -27.49210 0.08536 1.02216
                                   CHANNELS 3 Zrotation Xrotation Yrotation
                                   End Site
                                   {
                                        OFFSET -16.63120 -0.60000 1.50291
                                   }
                              }
                         }
                    }
               }
          }
     }
     JOINT LeftUpLeg
     {
          OFFSET 8.94580 -8.66707 0.10165
          CHANNELS 3 Zrotation Xrotation Yrotation
          JOINT LeftLeg
          {
               OFFSET 0.00000 -44.42270 1.37270
               CHANNELS 3 Zrotation Xrotation Yrotation
               JOINT LeftFoot
               {
                    OFFSET -0.25355 -42.09240 -1.46059
                    CHANNELS 3 Zrotation Xrotation Yrotation
                    JOINT LeftToes
                    {
                         OFFSET -0.04000 -4.41509 8.49910
                         CHANNELS 3 Zrotation Xrotation Yrotation
                         End Site
                         {
                              OFFSET 0.08000 -0.04745 9.77979
                         }
                    }
               }
          }
     }
     JOINT RightUpLeg
     {
          OFFSET -8.94580 -8.66707 0.10165
          CHANNELS 3 Zrotation Xrotation Yrotation
          JOINT RightLeg
          {
               OFFSET 0.00000 -44.42270 1.37270
               CHANNELS 3 Zrotation Xrotation Yrotation
               JOINT RightFoot
               {
                    OFFSET 0.25355 -42.09240 -1.46059
                    CHANNELS 3 Zrotation Xrotation Yrotation
                    JOINT RightToes
                    {
                         OFFSET 0.04000 -4.41509 8.49910
                         CHANNELS 3 Zrotation Xrotation Yrotation
                         End Site
                         {
                              OFFSET -0.08000 -0.13745 9.77979
                         }
                    }
               }
          }
     }
}
MOTION
Frames: 12
Frame Time: 0.01667
15.45090 93.71410 60.73260 -7.67119 -9.34179 -32.53060 -1.36457 9.99688 -1.25342 -2.51182 19.70700 -1.14792 -1.31305 -1.61892 14.86000 0.00000 0.00000 0.00000 -78.59560 -50.86600 -69.58390 -17.79050 26.98490 -82.42350 18.35630 6.85976 -15.28390 18.34350 0.87440 1.76637 84.25720 2.23879 74.44770 4.20668 30.37380 107.76000 19.33660 11.43150 4.46626 24.22370 -9.91062 -9.57696 -27.14260 9.68475 72.12550 3.01964 13.42050 -0.64933 3.64077 -25.50380 -63.93340 -24.87910 0.95940 11.67220 37.47170 21.51840 -33.24600 -34.86730 4.40003 3.69522 8.02353 -52.02180 9.05463 
15.45090 93.71410 60.73260 -7.67119 -9.34179 -32.53060 -1.36457 9.99688 -1.25342 -2.51182 19.70700 -1.14792 -1.31305 -1.61892 14.86000 0.00000 0.00000 0.00000 -78.59560 -50.86600 -69.58390 -17.79050 26.98490 -82.42350 18.35630 6.85976 -15.28390 18.34350 0.87440 1.76637 84.25720 2.23879 74.44770 4.20668 30.37380 107.76000 19.33660 11.43150 4.46626 24.22370 -9.91062 -9.57696 -27.14260 9.68475 72.12550 3.01964 13.42050 -0.64933 3.64077 -25.50380 -63.93340 -24.87910 0.95940 11.67220 37.47170 21.51840 -33.24600 -34.86730 4.40003 3.69522 8.02353 -52.02180 9.05463 
15.86770 93.79170 61.13040 -7.69983 -9.34631 -32.49650 -1.39658 9.97930 -1.28092 -2.46388 19.66990 -1.20570 -1.27302 -1.14300 14.73710 0.00000 0.00000 0.00000 -78.13050 -50.68090 -69.38880 -17.71230 27.10830 -82.64020 18.29470 6.89556 -15.12580 18.52880 0.84480 1.59541 84.07880 2.19625 74.44690 4.23791 30.33540 107.81500 19.37590 11.43140 4.44830 23.97730 -9.81404 -9.07814 -27.24760 9.85042 72.03560 3.12374 13.51900 -0.67168 3.31534 -26.30660 -64.16480 -25.10550 0.85918 11.99380 37.34750 21.67620 -32.84940 -34.89470 4.96943 3.87973 8.02697 -52.20690 8.95756 
16.28580 93.84930 61.48520 -7.74115 -9.38720 -32.49330 -1.39249 9.95328 -1.29428 -2.42127 19.62280 -1.22447 -1.19610 -0.71976 14.58730 0.00000 0.00000 0.00000 -77.64750 -50.49920 -69.16650 -17.66430 27.25040 -82.86530 18.18040 6.93746 -14.98570 18.74200 0.80832 1.39053 83.82160 2.13757 74.38230 4.29089 30.29190 107.85700 19.43850 11.43270 4.42831 23.75550 -9.69984 -8.71812 -27.41320 9.95544 72.06390 3.26407 13.52410 -0.69770 3.02436 -26.99980 -64.46120 -25.32360 0.66165 12.23610 37.37420 22.00310 -32.91960 -35.20640 5.39945 4.05573 8.21183 -52.48520 9.28049 
16.70020 93.86720 61.79660 -7.79799 -9.45738 -32.53050 -1.36786 9.92704 -1.29146 -2.39501 19.57670 -1.19592 -1.09304 -0.41727 14.44610 0.00000 0.00000 0.00000 -77.20690 -50.35730 -68.97690 -17.70240 27.44340 -83.07330 18.03890 6.98000 -14.86940 18.97350 0.77429 1.19859 83.52770 2.02722 74.26950 4.39655 30.28000 107.86900 19.51210 11.43390 4.40256 23.55740 -9.61738 -8.51143 -27.64020 10.07780 72.26470 3.48096 13.42040 -0.73391 2.73000 -27.67960 -64.80300 -25.55360 0.33906 12.39530 37.66790 22.49710 -33.66410 -35.73110 5.57976 4.18054 8.61693 -52.68720 10.20940 
17.09740 93.85150 62.04570 -7.85883 -9.54916 -32.61550 -1.34045 9.91283 -1.26981 -2.38813 19.55260 -1.13334 -1.00062 -0.23380 14.34680 0.00000 0.00000 0.00000 -77.04110 -50.37320 -68.97430 -17.90830 27.86300 -83.22480 17.96380 7.00564 -14.78710 19.16630 0.74638 1.04357 83.27610 1.90104 74.14490 4.54496 30.30260 107.83500 19.60520 11.43640 4.37604 23.39020 -9.55401 -8.46454 -27.91700 10.16040 72.63870 3.77959 13.25270 -0.78216 2.44428 -28.32450 -65.13150 -25.80160 -0.06695 12.47840 38.23020 22.99910 -35.05360 -36.37170 5.50699 4.23826 9.17997 -52.64700 11.68330 
17.46590 93.80820 62.22480 -7.90419 -9.65582 -32.74480 -1.33052 9.92192 -1.23225 -2.40381 19.56750 -1.05217 -0.94823 -0.12414 14.30400 0.00000 0.00000 0.00000 -77.34370 -50.62120 -69.28090 -18.30010 28.62560 -83.30470 18.03060 7.00061 -14.74590 19.28830 0.72817 0.94425 83.09610 1.80977 74.04350 4.71032 30.32650 107.74800 19.72530 11.44290 4.36060 23.24150 -9.52466 -8.55687 -28.22690 10.21420 73.14020 4.07836 13.04110 -0.82777 2.21934 -28.82300 -65.38330 -26.04890 -0.49535 12.46570 38.94420 23.37170 -36.73230 -36.92280 5.22173 4.21225 9.61804 -52.13580 13.16130 
17.79930 93.74660 62.33360 -7.92512 -9.77107 -32.90940 -1.34958 9.95615 -1.18156 -2.44136 19.62200 -0.95923 -0.94572 -0.03960 14.31920 0.00000 0.00000 0.00000 -78.15850 -51.07440 -69.92220 -18.82930 29.70040 -83.33760 18.23840 6.96810 -14.72720 19.37260 0.72529 0.92111 82.94950 1.75318 73.97660 4.86741 30.32860 107.63700 19.85050 11.45210 4.35857 23.09210 -9.54172 -8.74184 -28.52770 10.27360 73.70720 4.30042 12.80870 -0.85771 2.09008 -29.10260 -65.54350 -26.25380 -0.88342 12.30460 39.62970 23.56240 -38.18440 -37.16940 4.80503 4.10136 9.60276 -51.01030 13.93360 
18.09210 93.67460 62.37230 -7.92210 -9.89327 -33.09480 -1.40053 10.00690 -1.11968 -2.49537 19.70010 -0.85522 -0.98377 0.06135 14.37780 0.00000 0.00000 0.00000 -79.45970 -51.67250 -70.87560 -19.44360 31.02120 -83.35160 18.52860 6.92242 -14.70330 19.45800 0.74071 0.98248 82.82010 1.68305 73.92560 5.00094 30.32760 107.55300 19.94510 11.45820 4.35158 22.93260 -9.60619 -8.96482 -28.77760 10.36800 74.28690 4.39251 12.60510 -0.86514 2.05121 -29.17470 -65.65360 -26.39940 -1.18368 11.95610 40.16410 23.60810 -39.13040 -37.05910 4.34446 3.93176 9.12498 -49.45310 13.78590 
18.33740 93.59130 62.33950 -7.90438 -10.02190 -33.28400 -1.47274 10.06090 -1.04791 -2.55166 19.77990 -0.73539 -1.03755 0.18729 14.43520 0.00000 0.00000 0.00000 -81.21530 -52.36200 -72.12130 -20.12880 32.55020 -83.34440 18.83180 6.87788 -14.65930 19.53520 0.77070 1.11143 82.75150 1.54943 73.86710 5.12377 30.36510 107.51500 19.97590 11.45680 4.33084 22.78430 -9.71322 -9.18746 -28.97840 10.50660 74.84800 4.33628 12.47690 -0.84963 2.07354 -29.10110 -65.76640 -26.51130 -1.38406 11.45020 40.56580 23.61680 -39.70390 -36.74280 3.89278 3.74298 8.51078 -47.97960 13.12510 
18.53250 93.49350 62.23340 -7.89669 -10.15270 -33.46030 -1.52855 10.10870 -0.97127 -2.58110 19.85080 -0.59613 -1.07948 0.27875 14.43270 0.00000 0.00000 0.00000 -83.30920 -53.05530 -73.59550 -20.85670 34.18280 -83.31810 19.09240 6.84523 -14.58830 19.56270 0.80627 1.27151 82.79490 1.34097 73.79550 5.26932 30.46980 107.49100 19.91390 11.45050 4.32198 22.69620 -9.84189 -9.38780 -29.16380 10.65860 75.35870 4.20172 12.42970 -0.82404 2.11945 -28.96970 -65.89370 -26.62910 -1.51258 10.90490 40.96980 23.73970 -40.25580 -36.41880 3.44505 3.55746 8.07769 -47.10480 12.47680 
18.68170 93.38530 62.05520 -7.92835 -10.28320 -33.59860 -1.50972 10.14910 -0.90788 -2.55101 19.92030 -0.45431 -1.09562 0.20608 14.35140 0.00000 0.00000 0.00000 -85.50600 -53.64700 -75.14850 -21.52220 35.72650 -83.32690 19.27680 6.82850 -14.50090 19.49800 0.84175 1.44331 82.97440 1.08165 73.71850 5.46344 30.63600 107.43100 19.75330 11.44410 4.35551 22.70550 -9.94899 -9.54946 -29.35080 10.75520 75.75930 4.13230 12.43890 -0.81230 2.15631 -28.86440 -65.99810 -26.78470 -1.60245 10.46860 41.49800 24.11040 -41.11330 -36.19170 2.96417 3.37375 7.95708 -47.04380 12.14850 
